<svg width="80" height="80" viewBox="0 0 80 80" fill="none" xmlns="http://www.w3.org/2000/svg">
<g clip-path="url(#clip0_25_55)">
<path d="M66.5175 67.017C66.6499 67.017 66.7768 66.9645 66.8706 66.871C66.8707 66.8708 66.8708 66.8707 66.871 66.8706M66.5175 67.017L68.285 64.75C68.7537 65.2188 69.017 65.8546 69.017 66.5175C69.017 67.1804 68.7537 67.8162 68.285 68.285L66.871 66.8706M66.5175 67.017C66.385 67.017 66.2579 66.9644 66.1642 66.8708C66.1641 66.8707 66.1641 66.8706 66.164 66.8706L59.1111 59.8177C59.0248 59.7243 58.9771 59.6014 58.9782 59.4739C58.9794 59.3428 59.032 59.2174 59.1247 59.1247C59.2174 59.032 59.3428 58.9794 59.4739 58.9782C59.6014 58.9771 59.7243 59.0248 59.8177 59.1111M66.5175 67.017L59.8177 59.1111M66.871 66.8706C66.9645 66.7768 67.017 66.6499 67.017 66.5175C67.017 66.385 66.9644 66.2579 66.8708 66.1642C66.8707 66.1641 66.8706 66.1641 66.8706 66.164L59.8177 59.1111M66.871 66.8706L59.8177 59.1111M66.8706 13.836L66.8703 13.8363L59.8018 20.9098C59.8016 20.91 59.8013 20.9103 59.8011 20.9105C59.7546 20.9567 59.6996 20.9933 59.639 21.0184C59.5782 21.0435 59.513 21.0564 59.4471 21.0564C59.3142 21.0563 59.1867 21.0034 59.0927 20.9093C59.0462 20.8627 59.0093 20.8074 58.9841 20.7465L57.1358 21.5106L58.9841 20.7465C58.959 20.6857 58.9461 20.6205 58.9461 20.5546C58.9462 20.4217 58.9991 20.2942 59.0932 20.2002L59.0942 20.1992L66.164 13.1294C66.1641 13.1294 66.1641 13.1293 66.1642 13.1292C66.2579 13.0356 66.385 12.983 66.5175 12.983C66.6499 12.983 66.7768 13.0355 66.8706 13.129C66.9643 13.2228 67.017 13.3499 67.017 13.4825C67.017 13.6151 66.9643 13.7422 66.8706 13.836ZM20.9076 20.909L20.906 20.9106C20.8122 21.0043 20.6851 21.057 20.5525 21.057C20.4199 21.057 20.2928 21.0043 20.199 20.9106L13.1297 13.8363L13.1172 13.8237L13.1044 13.8114C13.0567 13.7653 13.0186 13.7101 12.9924 13.6491C12.9662 13.5881 12.9524 13.5225 12.9518 13.4561C12.9512 13.3897 12.9639 13.3239 12.989 13.2624C13.0142 13.201 13.0513 13.1452 13.0982 13.0982C13.1452 13.0513 13.201 13.0142 13.2624 12.989C13.3239 12.9639 13.3897 12.9512 13.4561 12.9518C13.5225 12.9524 13.5881 12.9662 13.6491 12.9924C13.7101 13.0186 13.7653 13.0567 13.8114 13.1044L13.8235 13.1169L13.8358 13.1292L20.9058 20.1992L20.9076 20.201C20.9541 20.2474 20.9911 20.3026 21.0163 20.3634L22.8636 19.5968L21.0163 20.3634C21.0415 20.4241 21.0545 20.4892 21.0545 20.555C21.0545 20.6208 21.0415 20.6859 21.0163 20.7466L22.8636 21.5132L21.0163 20.7466C20.9911 20.8074 20.9541 20.8626 20.9076 20.909ZM58 40C58 44.7739 56.1036 49.3523 52.7279 52.7279C49.3523 56.1036 44.7739 58 40 58C35.2261 58 30.6477 56.1036 27.2721 52.7279C23.8964 49.3523 22 44.7739 22 40C22 35.2261 23.8964 30.6477 27.2721 27.2721C30.6477 23.8964 35.2261 22 40 22C44.7739 22 49.3523 23.8964 52.7279 27.2721C56.1036 30.6477 58 35.2261 58 40ZM40 2C40.1326 2 40.2598 2.05268 40.3536 2.14645C40.4473 2.24021 40.5 2.36739 40.5 2.5V12.5C40.5 12.6326 40.4473 12.7598 40.3536 12.8536C40.2598 12.9473 40.1326 13 40 13C39.8674 13 39.7402 12.9473 39.6465 12.8536L38.2322 14.2678L39.6465 12.8536C39.5527 12.7598 39.5 12.6326 39.5 12.5V2.5C39.5 2.36739 39.5527 2.24022 39.6464 2.14645L38.2418 0.74181L39.6465 2.14644C39.7402 2.05268 39.8674 2 40 2ZM40 67C40.1326 67 40.2598 67.0527 40.3536 67.1464C40.4473 67.2402 40.5 67.3674 40.5 67.5V77.5C40.5 77.6326 40.4473 77.7598 40.3536 77.8536C40.2598 77.9473 40.1326 78 40 78C39.8674 78 39.7402 77.9473 39.6465 77.8536C39.5527 77.7598 39.5 77.6326 39.5 77.5V67.5C39.5 67.3674 39.5527 67.2402 39.6465 67.1464C39.7402 67.0527 39.8674 67 40 67ZM78 40C78 40.1326 77.9473 40.2598 77.8536 40.3536C77.7598 40.4473 77.6326 40.5 77.5 40.5H67.5C67.3674 40.5 67.2402 40.4473 67.1464 40.3536C67.0527 40.2598 67 40.1326 67 40C67 39.8674 67.0527 39.7402 67.1464 39.6465C67.2402 39.5527 67.3674 39.5 67.5 39.5H77.5C77.6326 39.5 77.7598 39.5527 77.8536 39.6465C77.9473 39.7402 78 39.8674 78 40ZM13 40C13 40.1326 12.9473 40.2598 12.8536 40.3536C12.7598 40.4473 12.6326 40.5 12.5 40.5H2.5C2.36739 40.5 2.24021 40.4473 2.14645 40.3536C2.05268 40.2598 2 40.1326 2 40C2 39.8674 2.05268 39.7402 2.14644 39.6465L0.74181 38.2418L2.14645 39.6464C2.24022 39.5527 2.36739 39.5 2.5 39.5H12.5C12.6326 39.5 12.7598 39.5527 12.8536 39.6465L14.2678 38.2322L12.8536 39.6465C12.9473 39.7402 13 39.8674 13 40ZM20.9056 59.094C20.9993 59.1878 21.052 59.3149 21.052 59.4475C21.052 59.58 20.9994 59.707 20.9058 59.8008C20.9057 59.8009 20.9056 59.8009 20.9056 59.801L13.8528 66.8538C13.7594 66.9402 13.6364 66.9879 13.5089 66.9868C13.3778 66.9856 13.2524 66.933 13.1597 66.8403C13.067 66.7476 13.0144 66.6222 13.0132 66.4911C13.0121 66.3636 13.0598 66.2406 13.1462 66.1472L20.199 59.0944C20.1991 59.0944 20.1991 59.0943 20.1992 59.0942C20.293 59.0006 20.42 58.948 20.5525 58.948C20.6849 58.948 20.8118 59.0005 20.9056 59.094Z" fill="#EDEDED" stroke="#9E0C0F" stroke-width="4"/>
</g>
<defs>
<clipPath id="clip0_25_55">
<rect width="80" height="80" fill="white"/>
</clipPath>
</defs>
</svg>
