<svg width="80" height="77" viewBox="0 0 80 77" fill="none" xmlns="http://www.w3.org/2000/svg">
<path d="M24.4 29.7661V51.0945C25.2514 51.1585 26.102 51.2331 26.9516 51.3184M24.4 29.7661L26.752 53.3084M24.4 29.7661C32.7158 29.0225 41.0427 27.2626 48.4 24.3085M24.4 29.7661L48.4 22.1476M26.9516 51.3184L26.752 53.3084M26.9516 51.3184C26.9513 51.3183 26.9509 51.3183 26.9505 51.3182L26.752 53.3084M26.9516 51.3184C34.3094 52.0524 41.5076 53.6131 48.4 56.4888M26.752 53.3084C34.2374 54.0551 41.4968 55.6694 48.4 58.6621V56.4888M48.4 56.4888C49.0696 56.7681 49.7363 57.0599 50.4 57.3646V59.573V23.465C49.742 23.7563 49.0751 24.0374 48.4 24.3085M48.4 56.4888V24.3085M48.4 24.3085V22.1476M48.4 22.1476C49.0763 21.8657 49.7433 21.5733 50.4 21.2703L48.4 22.1476ZM16.4 30.2098V50.6772C15.067 50.6297 13.7337 50.5926 12.4001 50.5658L12.3997 50.5658C11.7335 50.5526 11.0673 50.5418 10.4011 50.5335L10.3998 50.5335C7.09391 50.4942 4.39999 47.8027 4.39999 44.4656V36.4376C4.40619 34.8334 5.0394 33.2973 6.16103 32.1594C7.28313 31.021 8.8041 30.3721 10.3958 30.3499L10.401 30.3499C12.2322 30.3197 14.3163 30.2758 16.4 30.2098ZM26.3939 64.4942L26.3997 64.5331L26.407 64.5718C26.4625 64.8645 26.4529 65.1658 26.379 65.4542C26.3051 65.7426 26.1689 66.0105 25.9805 66.2389L27.5233 67.5116L25.9805 66.2389C25.7921 66.4673 25.5563 66.6505 25.2903 66.7759C25.0244 66.9014 24.7345 66.9662 24.4413 66.966H24.44H22.2481C22.2481 66.966 22.248 66.966 22.248 66.966C21.861 66.9659 21.4818 66.8527 21.1567 66.6393C20.8315 66.4258 20.5742 66.1209 20.4173 65.7612L20.3875 65.6929L20.3528 65.6271L16.7018 58.709C17.7996 58.751 18.8971 58.7999 19.9943 58.8558C21.2884 58.9233 22.5657 59.0027 23.8142 59.094C24.4149 59.1384 25.0143 59.1885 25.611 59.2443L26.3939 64.4942ZM56.4 18.3628C56.4 17.2931 56.8233 16.2688 57.5744 15.5148C58.3251 14.7611 59.3417 14.3391 60.4 14.3391C61.4583 14.3391 62.4749 14.7611 63.2256 15.5148C63.9767 16.2688 64.4 17.2931 64.4 18.3628V62.5367C64.4 63.6064 63.9767 64.6307 63.2256 65.3847C62.4749 66.1384 61.4583 66.5604 60.4 66.5604C59.3417 66.5604 58.3251 66.1384 57.5744 65.3847C56.8233 64.6307 56.4 63.6064 56.4 62.5367V18.3628Z" fill="#EDEDED" stroke="#9E0C0F" stroke-width="4"/>
</svg>
