<svg width="48" height="70" viewBox="0 0 48 70" fill="none" xmlns="http://www.w3.org/2000/svg">
<path d="M5 45.305H2.80267L3.00882 47.4926C3.77545 55.6281 10.4537 61.1357 19.8274 62.3717V65.9315V67.9315H21.8274H26.7149H28.7149V65.9315V62.3698C33.5222 61.7478 37.6049 60.1322 40.6118 57.5927C44.0407 54.697 45.95 50.6933 45.95 45.9938C45.95 42.0059 44.6638 38.6884 41.9342 36.087C39.283 33.5604 35.4291 31.8623 30.5707 30.682C30.5705 30.682 30.5704 30.682 30.5703 30.682L28.7149 30.2292V17.3731C32.0341 18.2171 33.9246 20.1892 34.4636 22.5874L34.8145 24.1489H36.4149H43.3033H45.5357L45.2913 21.9299C44.4287 14.0965 37.7385 8.77138 28.7149 7.63358V4.1228V2.1228H26.7149H21.8274H19.8274V4.1228V7.83715C11.0214 9.42063 4.50421 15.2318 4.50421 23.4998C4.50421 27.2232 5.83423 30.4673 8.32881 33.0243C10.7879 35.5449 14.2801 37.302 18.4962 38.3203L19.8321 38.6546V52.4278C16.3495 51.4075 14.3414 49.3291 13.7992 46.8737L13.4528 45.305H11.8462H5ZM19.8274 27.9857C18.4079 27.4979 17.3815 26.8879 16.6871 26.2273C15.8136 25.3963 15.3926 24.4238 15.3926 23.2349C15.3926 20.9283 16.8436 18.8303 19.8274 17.7315V27.9857ZM28.7149 52.7132V40.7891C31.1209 41.4329 32.6643 42.2055 33.6098 43.055C34.5629 43.9114 35.0241 44.9461 35.0241 46.4441C35.0241 48.275 34.3179 49.7277 33.0054 50.8188C32.0011 51.6537 30.5747 52.3272 28.7149 52.7132Z" fill="#EDEDED" stroke="#9E0C0F" stroke-width="4"/>
</svg>
