<svg width="76" height="76" viewBox="0 0 76 76" fill="none" xmlns="http://www.w3.org/2000/svg">
<path d="M46.779 23.0296L46.7793 23.0293C47.6003 22.2083 48.7139 21.747 49.875 21.747C51.0361 21.747 52.1497 22.2083 52.9707 23.0293C53.7918 23.8503 54.253 24.9639 54.253 26.125C54.253 27.2861 53.7918 28.3997 52.9707 29.2207L38.7225 43.4689C38.7219 43.4695 38.7213 43.4701 38.7207 43.4707M46.779 23.0296L38.7207 43.4707M46.779 23.0296L35.6254 34.1874M46.779 23.0296L35.6254 34.1874M38.7207 43.4707C38.3147 43.8773 37.8325 44.1999 37.3018 44.4202C36.7703 44.6407 36.2005 44.7542 35.625 44.7542C35.0496 44.7542 34.4797 44.6407 33.9482 44.4202C33.4175 44.1999 32.9353 43.8773 32.5293 43.4707M38.7207 43.4707H32.5293M32.5293 43.4707C32.5287 43.4701 32.5281 43.4695 32.5275 43.4689L25.4043 36.3457C24.9978 35.9392 24.6753 35.4566 24.4553 34.9254L26.303 34.16L24.4553 34.9254C24.2353 34.3942 24.122 33.8249 24.122 33.25C24.122 32.6751 24.2353 32.1058 24.4553 31.5746L26.303 32.34L24.4553 31.5746C24.6753 31.0434 24.9978 30.5608 25.4043 30.1543C25.8108 29.7477 26.2935 29.4253 26.8246 29.2053L26.8246 29.2053C27.3558 28.9852 27.9251 28.872 28.5 28.872C29.0749 28.872 29.6442 28.9852 30.1754 29.2053L30.1754 29.2053C30.7066 29.4253 31.1892 29.7478 31.5957 30.1543L31.5964 30.1549L35.6254 34.1874M32.5293 43.4707L35.6254 34.1874M24.6138 4.59073L24.6168 4.58994C29.8159 3.17636 35.0343 2 38 2C40.9652 2 46.1797 3.18011 51.382 4.58484C55.9521 5.84264 60.4912 7.21051 64.9953 8.68725C65.9444 9.00166 66.7857 9.57718 67.4227 10.3478L68.9643 9.07361L67.4227 10.3478C68.0602 11.1191 68.4673 12.0545 68.5972 13.0466L68.5978 13.0509C71.3509 33.7318 64.9694 48.9697 57.2826 59.0248L57.2775 59.0316C54.0185 63.3322 50.1324 67.1194 45.7493 70.2667L45.7487 70.2671C44.2729 71.3275 42.7094 72.2604 41.0753 73.0555C39.7809 73.6625 38.7037 74 38 74C37.2936 74 36.2062 73.6596 34.9151 73.0509L34.9136 73.0502C33.5951 72.43 31.9979 71.5018 30.2447 70.2623C25.8641 67.1158 21.9802 63.3301 18.7225 59.0315L18.7174 59.0248C11.0306 48.9697 4.64915 33.7318 7.40229 13.0509L7.40278 13.0472C7.53285 12.0557 7.93995 11.1211 8.57732 10.3507C9.21407 9.58095 10.0548 9.00628 11.0032 8.69252C14.116 7.67546 19.3919 6.00207 24.6138 4.59073Z" fill="#EDEDED" stroke="#9E0C0F" stroke-width="4"/>
</svg>
