<svg width="80" height="80" viewBox="0 0 80 80" fill="none" xmlns="http://www.w3.org/2000/svg">
<path d="M73 70V72H75H77.5C77.6326 72 77.7598 72.0527 77.8536 72.1464C77.9473 72.2402 78 72.3674 78 72.5C78 72.6326 77.9473 72.7598 77.8536 72.8536C77.7598 72.9473 77.6326 73 77.5 73H2.5C2.36739 73 2.24021 72.9473 2.14645 72.8536C2.05268 72.7598 2 72.6326 2 72.5C2 72.3674 2.05268 72.2402 2.14645 72.1464C2.24021 72.0527 2.36739 72 2.5 72H5H7V70V55C7 54.2043 7.31607 53.4413 7.87868 52.8787C8.44129 52.3161 9.20435 52 10 52H20C20.7956 52 21.5587 52.3161 22.1213 52.8787C22.6839 53.4413 23 54.2043 23 55V70V72H25H30H32V70V35C32 34.2044 32.3161 33.4413 32.8787 32.8787C33.4413 32.3161 34.2043 32 35 32H45C45.7957 32 46.5587 32.3161 47.1213 32.8787C47.6839 33.4413 48 34.2044 48 35V70V72H50H55H57V70V10C57 9.20435 57.3161 8.44129 57.8787 7.87868C58.4413 7.31607 59.2043 7 60 7H70C70.7956 7 71.5587 7.31607 72.1213 7.87867C72.6839 8.44129 73 9.20435 73 10V70Z" fill="#EDEDED" stroke="#9E0C0F" stroke-width="4"/>
</svg>
