<svg width="80" height="80" viewBox="0 0 80 80" fill="none" xmlns="http://www.w3.org/2000/svg">
<g clip-path="url(#clip0_25_57)">
<path d="M43.2279 73.8535C41.9084 75.262 40.7992 76.3961 40 77.1968C39.2008 76.3961 38.0916 75.262 36.7721 73.8535C33.9911 70.8848 30.2873 66.7086 26.5885 61.8735C22.8851 57.0326 19.2165 51.5698 16.481 46.0272C13.7346 40.4626 12 34.9595 12 30C12 22.5739 14.95 15.452 20.201 10.201C25.452 4.94999 32.5739 2 40 2C47.4261 2 54.548 4.94999 59.799 10.201C65.05 15.452 68 22.5739 68 30C68 34.9595 66.2654 40.4626 63.519 46.0272C60.7835 51.5698 57.1149 57.0326 53.4115 61.8735C49.7127 66.7086 46.0089 70.8848 43.2279 73.8535ZM27.9792 42.0208C31.1673 45.2089 35.4913 47 40 47C44.5087 47 48.8327 45.2089 52.0208 42.0208C55.2089 38.8327 57 34.5087 57 30C57 25.4913 55.2089 21.1673 52.0208 17.9792C48.8327 14.7911 44.5087 13 40 13C35.4913 13 31.1673 14.7911 27.9792 17.9792C24.7911 21.1673 23 25.4913 23 30C23 34.5087 24.7911 38.8327 27.9792 42.0208Z" fill="#EDEDED" stroke="#9E0C0F" stroke-width="4"/>
</g>
<defs>
<clipPath id="clip0_25_57">
<rect width="80" height="80" fill="white"/>
</clipPath>
</defs>
</svg>
